<svg xmlns="http://www.w3.org/2000/svg" width="13.407" height="24.774" viewBox="0 0 13.407 24.774"><defs><style>.a{fill:#1d1d1d;fill-rule:evenodd;}</style></defs><g transform="translate(-0.02)"><g transform="translate(-1122 -7672)"><g transform="translate(1 7548)"><g transform="translate(1121 84)"><g transform="translate(0 40)"><path class="a" d="M12.922.005,9.706,0C6.093,0,3.759,2.393,3.759,6.1V8.908H.525a.505.505,0,0,0-.506.505v4.073a.505.505,0,0,0,.506.505H3.759V24.269a.505.505,0,0,0,.506.505H8.483a.505.505,0,0,0,.506-.505V13.991h3.78a.505.505,0,0,0,.506-.505l0-4.073a.506.506,0,0,0-.506-.505H8.988V6.525c0-1.145.273-1.727,1.767-1.727h2.166a.505.505,0,0,0,.505-.505V.51A.506.506,0,0,0,12.922.005Z"/></g></g></g></g></g></svg>