<svg xmlns="http://www.w3.org/2000/svg" width="25.024" height="25" viewBox="0 0 25.024 25"><defs><style>.a{fill:#1d1d1d;}</style></defs><g transform="translate(-0.53)"><g transform="translate(-1213 -7672)"><g transform="translate(1 7548)"><g transform="translate(1121 84)"><g transform="translate(0 40)"><g transform="translate(91.53)"><path class="a" d="M17.2,0H7.82A7.817,7.817,0,0,0,0,7.813v9.375A7.817,7.817,0,0,0,7.82,25H17.2a7.817,7.817,0,0,0,7.82-7.812V7.813A7.817,7.817,0,0,0,17.2,0Zm5.474,17.188A5.477,5.477,0,0,1,17.2,22.656H7.82a5.477,5.477,0,0,1-5.474-5.469V7.813A5.477,5.477,0,0,1,7.82,2.344H17.2a5.477,5.477,0,0,1,5.474,5.469Z"/><path class="a" d="M12.714,6.452A6.25,6.25,0,1,0,18.97,12.7,6.253,6.253,0,0,0,12.714,6.452Zm0,10.156a3.906,3.906,0,1,1,3.91-3.906A3.914,3.914,0,0,1,12.714,16.608Z"/><circle class="a" cx="1" cy="1" r="1" transform="translate(18.373 4.645)"/></g></g></g></g></g></g></svg>